<svg id="icons" xmlns="http://www.w3.org/2000/svg" viewBox="0 0 59 34"><defs><style>.cls-1{fill:#ffffff;}</style></defs><title>4</title><path class="cls-1" d="M2263.59,565H2261v-0.5a6.51,6.51,0,0,0-6.5-6.5h-37a6.51,6.51,0,0,0-6.5,6.5v21a6.51,6.51,0,0,0,6.5,6.5h37a6.51,6.51,0,0,0,6.5-6.5V585h2.59a6.33,6.33,0,0,0,6.41-6.38V571.5A6.43,6.43,0,0,0,2263.59,565ZM2256,585.5a1.52,1.52,0,0,1-1.5,1.5h-37a1.52,1.52,0,0,1-1.5-1.5v-21a1.52,1.52,0,0,1,1.5-1.5h37a1.52,1.52,0,0,1,1.5,1.5v21Zm9-6.88a1.34,1.34,0,0,1-1.41,1.38H2261V570h2.59a1.45,1.45,0,0,1,1.41,1.5v7.12Z" transform="translate(-2211 -558)"/><polygon class="cls-1" points="28 9 9 17 22 17 22 25 41 17 28 17 28 9"/></svg>