<svg id="icons" xmlns="http://www.w3.org/2000/svg" viewBox="0 0 46.99 52"><defs><style>.cls-1{fill:#ffffff;}</style></defs><title>5</title><path class="cls-1" d="M470.47,194.59a10.31,10.31,0,0,0,1.52-5.23c0-4.57-3.15-7.3-8.23-7.3h-5.52c-1.37,0-3-.58-3.12-1.92a7.8,7.8,0,0,1,1.21-4.41A10.32,10.32,0,0,0,458,170.3a6.45,6.45,0,0,0-3.39-5.4,7.53,7.53,0,0,0-7.39.14c-2.21,1.24-6.93,7-8.32,8.73l-0.31.38c-4,5-7.51,9.36-13.58,9.9v5c8.44-.54,13-6.24,17.48-11.78l0.31-.38a52.81,52.81,0,0,1,6.86-7.49,2.57,2.57,0,0,1,2.54-.12,1.47,1.47,0,0,1,.8,1.3,6.87,6.87,0,0,1-1.08,2.81,12.52,12.52,0,0,0-1.77,7.16c0.31,3.77,3.65,6.4,8.1,6.4h5.52c3.23,0,3.23,1.57,3.23,2.41a5.6,5.6,0,0,1-.91,2.83,9.26,9.26,0,0,0-.84,2.34,9.5,9.5,0,0,0-.15,3.36,7,7,0,0,1-.24,3.06,6.23,6.23,0,0,1-1.64,2.23,17.82,17.82,0,0,0-1.61,2,10.2,10.2,0,0,0-1.09,2.28,3.6,3.6,0,0,1-2.32,2.6,14,14,0,0,1-5.35.91,21,21,0,0,1-10.74-3c-3.63-2.13-10.58-2-16.17-2H425v5h1c4.44,0,11.16-.08,13.6,1.35a25.86,25.86,0,0,0,13.2,3.67h0.34a18.44,18.44,0,0,0,7.23-1.4,8.41,8.41,0,0,0,4.88-5.39,5.84,5.84,0,0,1,.54-1.22,13.52,13.52,0,0,1,1.19-1.46,10.22,10.22,0,0,0,2.54-4.16,12,12,0,0,0,.42-4.92,4.94,4.94,0,0,1,0-1.74A6.4,6.4,0,0,1,470.47,194.59Z" transform="translate(-425 -164)"/></svg>