<svg id="icons" xmlns="http://www.w3.org/2000/svg" viewBox="0 0 59 43"><defs><style>.cls-1{fill:#ffffff;}</style></defs><title>9</title><path class="cls-1" d="M1240.5,1464a4.5,4.5,0,1,0-3.74-7H1224v-6h-17v6h-12.76a4.5,4.5,0,1,0,0,5h6.2c-4,3.45-6.3,8.59-6.42,15h-6v17h17v-17h-6c0.15-6.46,3-11,8-13.31V1468h17v-4.31c5,2.27,7.83,6.85,8,13.31h-6v17h17v-17h-6c-0.12-6.41-2.4-11.55-6.4-15h6.18A4.49,4.49,0,0,0,1240.5,1464Zm-40.5,18v7h-7v-7h7Zm19-19h-7v-7h7v7Zm19,19v7h-7v-7h7Z" transform="translate(-1186 -1451)"/></svg>