<svg id="icons" xmlns="http://www.w3.org/2000/svg" viewBox="0 0 48 48"><defs><style>.cls-1{fill:#ffffff;}</style></defs><title>6</title><path class="cls-1" d="M1728.06,295a24,24,0,1,0,24,24A24,24,0,0,0,1728.06,295Zm13.57,37.57a19.19,19.19,0,1,1,5.62-13.57A19.06,19.06,0,0,1,1741.63,332.57Z" transform="translate(-1704.06 -295)"/><path class="cls-1" d="M1724.49,315.48l-6.55,11.83,1.76,1.76,11.83-6.55,6.55-11.83-1.76-1.76Zm3.57,5.82a2.3,2.3,0,1,1,2.3-2.3A2.3,2.3,0,0,1,1728.06,321.3Z" transform="translate(-1704.06 -295)"/></svg>