<svg id="icons" xmlns="http://www.w3.org/2000/svg" viewBox="0 0 51 57.94"><defs><style>.cls-1{fill:#ffffff;}</style></defs><title>7</title><path class="cls-1" d="M856.61,1335.49c-1-5.41-4.06-9.07-8.72-10.71a35.21,35.21,0,0,0-7.16,3.84l1,0c7.8,0,9.53,4.4,10.15,7.71,1.27,6.71-1.71,15.23-8,22.77-4.73,5.71-10,9.13-12.45,9.13s-7.71-3.41-12.44-9.12c-6.25-7.54-9.23-16.06-8-22.77,0.62-3.31,2.36-7.71,10.15-7.71l1,0a35.49,35.49,0,0,0-7.13-3.84c-4.66,1.64-7.7,5.3-8.72,10.71-2.2,11.67,5.52,22.54,8.94,26.67,5.46,6.59,11.81,10.84,16.17,10.84s10.71-4.26,16.17-10.85C851.09,1358,858.81,1347.16,856.61,1335.49Z" transform="translate(-806 -1315.06)"/><path class="cls-1" d="M829.54,1329.72a2.5,2.5,0,0,0,3.92,0c0.05-.06,5.2-6.45,16.4-9.88l-1.46-4.78a44.56,44.56,0,0,0-14.4,7.36V1316h-5v6.41a44.6,44.6,0,0,0-14.4-7.36l-1.46,4.78C824.23,1323.23,829.49,1329.66,829.54,1329.72Z" transform="translate(-806 -1315.06)"/><ellipse class="cls-1" cx="13.5" cy="24.44" rx="2.5" ry="3.5"/><ellipse class="cls-1" cx="25.5" cy="24.44" rx="2.5" ry="3.5"/><ellipse class="cls-1" cx="25.5" cy="43.44" rx="2.5" ry="3.5"/><ellipse class="cls-1" cx="17.5" cy="34.44" rx="2.5" ry="3.5"/><ellipse class="cls-1" cx="33.5" cy="34.44" rx="2.5" ry="3.5"/><ellipse class="cls-1" cx="37.5" cy="24.44" rx="2.5" ry="3.5"/></svg>