<svg id="icons" xmlns="http://www.w3.org/2000/svg" viewBox="0 0 44 56.46"><defs><style>.cls-1{fill:#ffffff;}</style></defs><title>8</title><path class="cls-1" d="M203,605.46s-27-9.4-28.5-10.07c-2.1-.94-4.5-2.51-4.5-6.29v-33a8.07,8.07,0,0,1,.12-1.54c0.65-3.39,3.57-5.58,7.43-5.58H214v46h-5V554H177.55a2.49,2.49,0,0,0-2.43,1.16,2.07,2.07,0,0,0,1.18,2.64c3.58,1.43,24.88,9.48,25.09,9.56L203,568v37.49Zm-28-42.8V589.1c0,0.71,0,1,1.54,1.73,1,0.44,12.46,4.51,21.46,7.6v-27C193,569.59,179,564.24,175,562.66Z" transform="translate(-170 -549)"/></svg>