<svg id="icons" xmlns="http://www.w3.org/2000/svg" viewBox="0 0 61.84 37"><defs><style>.cls-1{fill:none;}.cls-2{fill:#2068fb;}</style></defs><title>10</title><path class="cls-1" d="M301,319.17c1.83,0,3.15-1.82,3.15-4.32a3.15,3.15,0,0,0-6.3,0C297.85,317.36,299.18,319.17,301,319.17Z" transform="translate(-289.08 -303)"/><path class="cls-1" d="M338,319.17c1.83,0,3.15-1.82,3.15-4.32,0-2.35-1.63-3-3.15-3a2.88,2.88,0,0,0-3.15,3C334.82,317.36,336.15,319.17,338,319.17Z" transform="translate(-289.08 -303)"/><path class="cls-1" d="M319.5,316.2c2.13,0,3.67-2.06,3.67-4.9a3.68,3.68,0,0,0-7.35,0C315.83,314.14,317.37,316.2,319.5,316.2Z" transform="translate(-289.08 -303)"/><path class="cls-2" d="M294,335.81c0.1-1.18.72-4.86,7.89-4.86h0.33a13.19,13.19,0,0,1,2-4.82,21.52,21.52,0,0,0-2.32-.13c-7.42,0-12,3.41-12.5,9.38l-0.34,4.6h4.64Z" transform="translate(-289.08 -303)"/><path class="cls-2" d="M350.58,335.36c-0.52-5.94-5.08-9.35-12.5-9.35a21.43,21.43,0,0,0-2.3.13,13.06,13.06,0,0,1,2,4.82h0.33c7.17,0,7.79,3.67,7.89,4.83l0.31,4.23h4.64Z" transform="translate(-289.08 -303)"/><path class="cls-2" d="M310.28,333.26c0.34-3.54,3.81-5.33,9.72-5.33s9.38,1.79,9.72,5.29l0.55,6.78h4.67l-0.59-7.14c-0.61-6.25-5.84-9.84-14.36-9.84s-13.75,3.59-14.36,9.88l-0.58,7.1h4.67Z" transform="translate(-289.08 -303)"/><path class="cls-2" d="M301,324c4.56,0,8-3.92,8-9.11a8,8,0,0,0-16,0C293,320.08,296.44,324,301,324Zm0-12.17a2.88,2.88,0,0,1,3.15,3c0,2.5-1.32,4.32-3.15,4.32s-3.15-1.82-3.15-4.32A2.88,2.88,0,0,1,301,311.82Z" transform="translate(-289.08 -303)"/><path class="cls-2" d="M338,324c4.56,0,8-3.92,8-9.11a7.77,7.77,0,0,0-8-7.89,7.68,7.68,0,0,0-8,7.89C330,320.08,333.44,324,338,324Zm0-12.17c1.52,0,3.15.68,3.15,3,0,2.5-1.33,4.32-3.15,4.32s-3.15-1.82-3.15-4.32A2.88,2.88,0,0,1,338,311.82Z" transform="translate(-289.08 -303)"/><path class="cls-2" d="M319.5,321c4.85,0,8.5-4.16,8.5-9.66a8.5,8.5,0,0,0-17,0C311,316.84,314.65,321,319.5,321Zm0-13.2a3.51,3.51,0,0,1,3.67,3.5c0,2.84-1.54,4.9-3.67,4.9s-3.67-2.06-3.67-4.9A3.51,3.51,0,0,1,319.5,307.8Z" transform="translate(-289.08 -303)"/></svg>